<?xml version="1.0" standalone="no"?>
<!DOCTYPE svg PUBLIC "-//W3C//DTD SVG 20010904//EN"
 "http://www.w3.org/TR/2001/REC-SVG-20010904/DTD/svg10.dtd">
<svg version="1.0" xmlns="http://www.w3.org/2000/svg"
 width="500.000000pt" height="500.000000pt" viewBox="0 0 500.000000 500.000000"
 preserveAspectRatio="xMidYMid meet">
<metadata>
Created by potrace 1.16, written by Peter Selinger 2001-2019
</metadata>
<g transform="translate(0.000000,500.000000) scale(0.100000,-0.100000)"
fill="#000000" stroke="none">
<path d="M0 2500 l0 -2500 2500 0 2500 0 0 2500 0 2500 -2500 0 -2500 0 0
-2500z m2619 1091 c82 -25 138 -60 193 -119 157 -167 157 -417 0 -584 -210
-225 -571 -164 -705 119 -30 63 -32 76 -32 173 0 97 2 110 32 173 94 199 312
300 512 238z m-1020 -1475 c55 -135 101 -247 101 -250 0 -4 -18 -6 -39 -6
l-39 0 -28 70 c-15 39 -33 75 -40 81 -7 5 -52 9 -105 7 l-94 -3 -32 -75 c-32
-75 -32 -75 -74 -78 -31 -2 -40 0 -37 10 3 7 50 120 104 251 l98 237 42 0 42
0 101 -244z m611 217 c42 -22 59 -40 84 -83 28 -50 31 -63 31 -140 0 -76 -3
-91 -30 -139 -18 -32 -46 -64 -69 -80 -36 -24 -49 -26 -168 -29 l-128 -4 0
251 0 251 114 0 c105 0 118 -2 166 -27z m540 -3 c0 -23 -4 -30 -20 -30 -19 0
-20 -7 -20 -190 0 -183 1 -190 20 -190 16 0 20 -7 20 -30 l0 -30 -75 0 -75 0
0 29 c0 20 6 30 20 34 19 5 20 14 20 187 0 173 -1 182 -20 187 -14 4 -20 14
-20 34 l0 29 75 0 75 0 0 -30z m580 -5 l0 -35 -65 0 -65 0 0 -215 0 -215 -40
0 -40 0 0 215 0 214 -67 3 c-56 2 -68 6 -71 21 -9 45 -2 47 178 47 l170 0 0
-35z m400 5 c0 -20 -5 -30 -15 -30 -13 0 -15 -28 -15 -190 0 -162 2 -190 15
-190 10 0 15 -10 15 -30 l0 -30 -70 0 -70 0 0 30 c0 20 5 30 15 30 13 0 15 28
15 190 0 162 -2 190 -15 190 -10 0 -15 10 -15 30 l0 30 70 0 70 0 0 -30z"/>
<path d="M2372 3562 c-82 -29 -157 -87 -202 -154 -55 -83 -73 -151 -68 -254 8
-148 89 -269 226 -336 63 -31 73 -33 172 -33 98 0 110 2 170 32 83 41 152 110
193 193 30 60 32 72 32 170 0 98 -2 110 -32 170 -40 83 -110 152 -192 193 -55
27 -77 32 -155 34 -70 3 -103 -1 -144 -15z m171 -269 c9 -21 40 -98 71 -170
l55 -133 -28 0 c-25 0 -31 7 -51 55 l-23 56 -70 -3 -69 -3 -22 -52 c-18 -46
-25 -53 -48 -53 -16 0 -28 2 -28 4 0 5 130 318 137 329 2 4 17 7 33 7 23 0 31
-7 43 -37z"/>
<path d="M2000 2111 l0 -181 74 0 c59 0 79 4 107 23 48 32 69 79 69 155 0 72
-16 116 -55 152 -23 22 -38 25 -111 29 l-84 3 0 -181z"/>
</g>
</svg>
