<?xml version="1.0" standalone="no"?>
<!DOCTYPE svg PUBLIC "-//W3C//DTD SVG 20010904//EN"
 "http://www.w3.org/TR/2001/REC-SVG-20010904/DTD/svg10.dtd">
<svg version="1.0" xmlns="http://www.w3.org/2000/svg"
 width="225.000000pt" height="225.000000pt" viewBox="0 0 225.000000 225.000000"
 preserveAspectRatio="xMidYMid meet">
<metadata>
Created by potrace 1.16, written by Peter Selinger 2001-2019
</metadata>
<g transform="translate(0.000000,225.000000) scale(0.100000,-0.100000)"
fill="#000000" stroke="none">
<path d="M995 2210 c-364 -47 -683 -272 -843 -595 -81 -163 -113 -305 -113
-490 0 -189 33 -328 117 -496 230 -460 772 -698 1266 -554 399 115 696 441
773 848 19 98 19 296 1 397 -70 388 -352 715 -724 839 -143 48 -336 69 -477
51z m721 -494 l34 -34 0 -557 0 -557 -34 -34 -34 -34 -557 0 -557 0 -34 34
-34 34 0 557 0 557 34 34 34 34 557 0 557 0 34 -34z"/>
<path d="M714 1592 c-33 -21 -64 -76 -64 -112 0 -36 31 -91 64 -112 23 -14 43
-18 80 -15 42 4 55 10 83 41 28 30 33 43 33 86 0 43 -5 56 -33 86 -28 31 -41
37 -83 41 -37 3 -57 -1 -80 -15z"/>
<path d="M1325 1295 c-5 -2 -22 -6 -38 -9 -15 -4 -45 -22 -67 -42 l-39 -35 -3
38 -3 38 -95 0 -95 0 0 -320 0 -320 95 0 95 0 5 190 c6 197 12 226 51 261 31
28 62 34 104 23 62 -17 69 -46 75 -274 l5 -200 97 -3 97 -3 7 27 c13 51 -3
425 -21 482 -21 69 -76 125 -138 140 -43 11 -109 15 -132 7z"/>
<path d="M692 1278 c-14 -14 -18 -604 -4 -626 6 -9 33 -12 98 -10 l89 3 0 320
0 320 -85 3 c-58 2 -89 -1 -98 -10z"/>
</g>
</svg>
